<svg xmlns="http://www.w3.org/2000/svg" viewBox="0 0 200 260" fill="white">
  <!-- Arch frame -->
  <path d="M40 180 L40 100 Q40 40, 100 40 Q160 40, 160 100 L160 180" 
        fill="none" stroke="white" stroke-width="4" stroke-linecap="round"/>
  
  <!-- Main stem -->
  <path d="M100 180 L100 70" fill="none" stroke="white" stroke-width="3" stroke-linecap="round"/>
  
  <!-- Bottom leaves (largest) -->
  <ellipse cx="70" cy="150" rx="22" ry="12" transform="rotate(-40 70 150)"/>
  <ellipse cx="130" cy="150" rx="22" ry="12" transform="rotate(40 130 150)"/>
  
  <!-- Middle leaves -->
  <ellipse cx="75" cy="120" rx="18" ry="10" transform="rotate(-35 75 120)"/>
  <ellipse cx="125" cy="120" rx="18" ry="10" transform="rotate(35 125 120)"/>
  
  <!-- Top leaves (smaller) -->
  <ellipse cx="80" cy="95" rx="14" ry="8" transform="rotate(-30 80 95)"/>
  <ellipse cx="120" cy="95" rx="14" ry="8" transform="rotate(30 120 95)"/>
  
  <!-- Top center leaf -->
  <ellipse cx="100" cy="75" rx="8" ry="14"/>
  
  <!-- YAAB text -->
  <text x="100" y="210" text-anchor="middle" font-family="Inter, Arial, sans-serif" font-size="32" font-weight="700" fill="white">YAAB</text>
  
  <!-- IMPACT text -->
  <text x="100" y="240" text-anchor="middle" font-family="Inter, Arial, sans-serif" font-size="24" font-weight="600" letter-spacing="2" fill="white">IMPACT</text>
</svg>
